# xmcd
#
# Track frame offsets:
#	150
#	11761
#	21534
#	30557
#	40965
#	51476
#	62302
#	73100
#	85785
#	87961
#	101641
#	117114
#	125354
#	136535
#	144755
#	158288
#	172406
#	182787
#	191235
#	203500
#	215208
#	223327
#	232858
#	242861
#	252586
#	261309
#	270899
#	282030
#	293245
#	301657
#	311566
#	322742
#	332789
#	342244
#
# Disc length: 4708 seconds
#
# Revision: 1
# Processed by: cddbd v1.5.2PL0 Copyright (c) Steve Scherf et al.
# Submitted via: EasyCDDAExtractor 15.3.0.1
#
DISCID=f1126222
DTITLE=Bobby Bare - The All-American Boy_1[1956-61]
DYEAR=1900
DGENRE=Country
TTITLE0=Darlin' Don't 1957
TTITLE1=Another Love Has Ended 1956
TTITLE2=Down on the Corner of Love 1956
TTITLE3=The Lift of a Fool 1957
TTITLE4=A Beggar 1957
TTITLE5=The Livin' End 1957
TTITLE6=Vampira 1958
TTITLE7=Tender Years 1958
TTITLE8=When the One You Love (Incomplete) 1994
TTITLE9=All-American Boy 1959
TTITLE10=What You Gonna Do Now 1993
TTITLE11=I'm Hanging Up My Rifle (Alt) 1994
TTITLE12=That's Where I Want to Be 1959
TTITLE13=I'm Hanging Up My Rifle (Master) 1959
TTITLE14=Lynching Party (Fraternity Master) 1960
TTITLE15=Lynching Party (Alt) 1994
TTITLE16=Sweet Singin' Sam (Rock 'N' Roll version) 1994
TTITLE17=Sweet Singin' Sam (single Master) 1960
TTITLE18=Lynching Party (Rca Release) 1963
TTITLE19=More Than a Poor Boy Could Give 1960
TTITLE20=No Letter From My Baby 1960
TTITLE21=Book of Love 1961
TTITLE22=Can Can Ladies
TTITLE23=Lorena 1961
TTITLE24=Zig Zag Twist 1961
TTITLE25=Island of Love 1961
TTITLE26=Sailor Man 1961
TTITLE27=These Tender Years 1994
TTITLE28=Lovesick 1994
TTITLE29=Great Big Car 1994
TTITLE30=Brooklyn Bridge (Alt) 1994
TTITLE31=That Mean Old Clock 1961
TTITLE32=The Day My Rainbow Fell 1961
TTITLE33=Brooklyn Bridge (Master) 1961
EXTD=
EXTT0=
EXTT1=
EXTT2=
EXTT3=
EXTT4=
EXTT5=
EXTT6=
EXTT7=
EXTT8=
EXTT9=
EXTT10=
EXTT11=
EXTT12=
EXTT13=
EXTT14=
EXTT15=
EXTT16=
EXTT17=
EXTT18=
EXTT19=
EXTT20=
EXTT21=
EXTT22=
EXTT23=
EXTT24=
EXTT25=
EXTT26=
EXTT27=
EXTT28=
EXTT29=
EXTT30=
EXTT31=
EXTT32=
EXTT33=
PLAYORDER=
